<svg width="332" height="102" viewBox="0 0 332 102" fill="none" xmlns="http://www.w3.org/2000/svg">
<path d="M111.318 30.5555C115.002 36.2707 114.759 44.3941 109.654 53.5735C104.604 62.6551 95.1519 71.9558 82.339 79.0401C69.5261 86.1243 56.2017 89.4166 45.1742 89.2245C34.028 89.0303 26.1928 85.3731 22.5094 79.6579C18.826 73.9427 19.0686 65.8193 24.1735 56.6399C29.2241 47.5582 38.676 38.2575 51.4889 31.1733C64.3018 24.0891 77.6262 20.7968 88.6537 20.9889C99.7999 21.1831 107.635 24.8403 111.318 30.5555Z" stroke="#8C52FF" stroke-width="10"/>
<path d="M16.6568 21.5797C16.6568 16.0569 21.1339 11.5797 26.6568 11.5797H78.3312C83.854 11.5797 88.3312 16.0569 88.3312 21.5797V74.9499C88.3312 80.4728 83.854 84.9499 78.3312 84.9499H26.6568C21.1339 84.9499 16.6568 80.4728 16.6568 74.9499V21.5797Z" fill="#8C52FF"/>
<rect width="39.0951" height="2.93481" rx="1.4674" transform="matrix(1 0 0 -1 32.1319 23.319)" fill="#D9D9D9"/>
<rect width="35.8372" height="2.93481" rx="1.4674" transform="matrix(1 0 0 -1 34.5754 46.7974)" fill="#D9D9D9"/>
<rect width="35.8372" height="2.93481" rx="1.4674" transform="matrix(1 0 0 -1 34.5754 77.6129)" fill="#D9D9D9"/>
<rect width="26.0634" height="2.93481" rx="1.4674" transform="matrix(1 0 0 -1 34.5754 54.1345)" fill="#D9D9D9"/>
<rect width="26.0634" height="2.93481" rx="1.4674" transform="matrix(1 0 0 -1 34.5754 61.4715)" fill="#D9D9D9"/>
<rect width="26.0634" height="2.93481" rx="1.4674" transform="matrix(1 0 0 -1 34.5754 68.8085)" fill="#D9D9D9"/>
<rect width="3.25793" height="2.93481" rx="1.4674" transform="matrix(1 0 0 -1 66.3402 54.1345)" fill="#D9D9D9"/>
<rect width="3.25793" height="2.93481" rx="1.4674" transform="matrix(1 0 0 -1 66.3402 62.2052)" fill="#D9D9D9"/>
<rect width="3.25793" height="2.93481" rx="1.4674" transform="matrix(1 0 0 -1 66.3402 70.2759)" fill="#D9D9D9"/>
<path d="M116.6 89V49H127.8C130.348 49 132.363 49.5037 133.844 50.5111C135.356 51.5185 136.437 52.7481 137.089 54.2C137.741 55.6222 138.067 56.9704 138.067 58.2444C138.067 59.6963 137.726 61.0296 137.044 62.2444C136.393 63.4296 135.504 64.4074 134.378 65.1778C136.541 66.1556 138.289 67.6222 139.622 69.5778C140.985 71.5333 141.667 73.7556 141.667 76.2444C141.667 78.3481 141.133 80.3778 140.067 82.3333C139.03 84.2889 137.474 85.8889 135.4 87.1333C133.356 88.3778 130.822 89 127.8 89H116.6ZM121.667 84.4667H127.444C129.637 84.4667 131.4 84.037 132.733 83.1778C134.067 82.3185 135.044 81.237 135.667 79.9333C136.289 78.6296 136.6 77.3407 136.6 76.0667C136.6 74.8222 136.304 73.5481 135.711 72.2444C135.119 70.9407 134.156 69.8593 132.822 69C131.489 68.1111 129.696 67.6667 127.444 67.6667H121.667V84.4667ZM121.667 63.4H127.4C129.148 63.4 130.556 62.9852 131.622 62.1556C132.719 61.2963 133.267 60.0815 133.267 58.5111C133.267 56.8815 132.733 55.6519 131.667 54.8222C130.6 53.963 129.237 53.5333 127.578 53.5333H121.667V63.4ZM148.579 89V62.3333H153.379V89H148.579ZM150.979 57.5333C150.09 57.5333 149.335 57.2222 148.713 56.6C148.09 55.9778 147.779 55.2222 147.779 54.3333C147.779 53.4148 148.09 52.6593 148.713 52.0667C149.335 51.4444 150.09 51.1333 150.979 51.1333C151.898 51.1333 152.653 51.4444 153.246 52.0667C153.868 52.6593 154.179 53.4148 154.179 54.3333C154.179 55.2222 153.868 55.9778 153.246 56.6C152.653 57.2222 151.898 57.5333 150.979 57.5333ZM161.892 89V46.3333H166.692V89H161.892ZM175.204 89V46.3333H180.004V89H175.204ZM200.872 90.3333L184.783 49H190.117L199.539 73.0889C199.835 73.8593 200.102 74.6 200.339 75.3111C200.606 75.9926 200.857 76.7926 201.094 77.7111C201.331 76.7926 201.569 75.9926 201.806 75.3111C202.072 74.6 202.354 73.8593 202.65 73.0889L212.028 49H217.05L200.961 90.3333H200.872ZM230.54 89.5333C227.755 89.5333 225.251 88.9111 223.029 87.6667C220.837 86.4222 219.103 84.7333 217.829 82.6C216.585 80.437 215.963 78.037 215.963 75.4C215.963 72.8815 216.57 70.6 217.785 68.5556C219 66.4815 220.629 64.837 222.674 63.6222C224.748 62.4074 227.029 61.8 229.518 61.8C231.977 61.8 234.229 62.3926 236.274 63.5778C238.318 64.7333 239.948 66.3037 241.163 68.2889C242.377 70.2741 242.985 72.5259 242.985 75.0444V77H225.562C224.792 77 224.007 76.9704 223.207 76.9111C222.407 76.8519 221.622 76.763 220.851 76.6444C221.177 79.0148 222.244 81 224.051 82.6C225.888 84.2 228.066 85 230.585 85C232.274 85 233.844 84.6148 235.296 83.8444C236.748 83.0741 237.918 82.0519 238.807 80.7778L240.14 86.2444C238.866 87.2815 237.4 88.0963 235.74 88.6889C234.111 89.2519 232.377 89.5333 230.54 89.5333ZM220.718 73.4C222.318 73.1333 223.933 73 225.562 73H234.407C235.059 73 235.696 73.0296 236.318 73.0889C236.97 73.1185 237.622 73.163 238.274 73.2222C237.859 71.1481 236.822 69.4444 235.163 68.1111C233.503 66.7481 231.622 66.0667 229.518 66.0667C227.355 66.0667 225.459 66.7926 223.829 68.2444C222.2 69.6667 221.163 71.3852 220.718 73.4ZM249.392 89V62.3333H253.836V67.2222C254.784 65.6519 256.044 64.4074 257.614 63.4889C259.184 62.5407 261.051 62.0667 263.214 62.0667L264.414 66.8667C263.851 66.6889 263.199 66.6 262.458 66.6C259.969 66.6 257.969 67.4 256.458 69C254.947 70.5704 254.192 72.8222 254.192 75.7556V89H249.392ZM276.281 89.5333C274.918 89.5333 273.451 89.2815 271.881 88.7778C270.34 88.2444 269.006 87.3704 267.881 86.1556L269.214 80.9111C270.044 82.3037 271.11 83.4148 272.414 84.2444C273.718 85.0444 275.11 85.4444 276.592 85.4444C278.014 85.4444 279.081 85.1037 279.792 84.4222C280.503 83.7111 280.858 82.8519 280.858 81.8444C280.858 80.6889 280.473 79.8444 279.703 79.3111C278.962 78.7778 278.295 78.4074 277.703 78.2L274.103 76.8222C273.451 76.5556 272.666 76.1704 271.747 75.6667C270.829 75.1333 270.029 74.3778 269.347 73.4C268.666 72.4222 268.325 71.1481 268.325 69.5778C268.325 68.1556 268.666 66.8519 269.347 65.6667C270.029 64.4815 270.992 63.5481 272.236 62.8667C273.481 62.1556 274.947 61.8 276.636 61.8C277.969 61.8 279.362 62.037 280.814 62.5111C282.266 62.9852 283.495 63.7852 284.503 64.9111L283.169 70.1556C282.458 68.8519 281.495 67.8148 280.281 67.0444C279.066 66.2741 277.806 65.8889 276.503 65.8889C275.288 65.8889 274.325 66.2296 273.614 66.9111C272.932 67.5926 272.592 68.3778 272.592 69.2667C272.592 69.9778 272.829 70.6148 273.303 71.1778C273.777 71.7407 274.488 72.2 275.436 72.5556L279.036 73.9333C279.688 74.1704 280.488 74.5556 281.436 75.0889C282.414 75.6222 283.273 76.3926 284.014 77.4C284.755 78.4074 285.125 79.7704 285.125 81.4889C285.125 83.8889 284.281 85.8296 282.592 87.3111C280.932 88.7926 278.829 89.5333 276.281 89.5333ZM304.79 89.5333C302.005 89.5333 299.501 88.9111 297.279 87.6667C295.087 86.4222 293.353 84.7333 292.079 82.6C290.835 80.437 290.213 78.037 290.213 75.4C290.213 72.8815 290.82 70.6 292.035 68.5556C293.25 66.4815 294.879 64.837 296.924 63.6222C298.998 62.4074 301.279 61.8 303.768 61.8C306.227 61.8 308.479 62.3926 310.524 63.5778C312.568 64.7333 314.198 66.3037 315.413 68.2889C316.627 70.2741 317.235 72.5259 317.235 75.0444V77H299.812C299.042 77 298.257 76.9704 297.457 76.9111C296.657 76.8519 295.872 76.763 295.101 76.6444C295.427 79.0148 296.494 81 298.301 82.6C300.138 84.2 302.316 85 304.835 85C306.524 85 308.094 84.6148 309.546 83.8444C310.998 83.0741 312.168 82.0519 313.057 80.7778L314.39 86.2444C313.116 87.2815 311.65 88.0963 309.99 88.6889C308.361 89.2519 306.627 89.5333 304.79 89.5333ZM294.968 73.4C296.568 73.1333 298.183 73 299.812 73H308.657C309.309 73 309.946 73.0296 310.568 73.0889C311.22 73.1185 311.872 73.163 312.524 73.2222C312.109 71.1481 311.072 69.4444 309.413 68.1111C307.753 66.7481 305.872 66.0667 303.768 66.0667C301.605 66.0667 299.709 66.7926 298.079 68.2444C296.45 69.6667 295.413 71.3852 294.968 73.4Z" fill="#8C52FF"/>
</svg>
